<svg xmlns="http://www.w3.org/2000/svg" xmlns:xlink="http://www.w3.org/1999/xlink" viewBox="0 0 231 231"><defs><style>.cls-1{fill:url(#linear-gradient);}.cls-2{fill:#fff;}</style><linearGradient id="linear-gradient" x1="33.83" y1="33.83" x2="197.17" y2="197.17" gradientUnits="userSpaceOnUse"><stop offset="0.02" stop-color="#53b67d"/><stop offset="0.5" stop-color="#007649"/><stop offset="1" stop-color="#004329"/></linearGradient></defs><title>Asset 1</title><g id="Layer_2" data-name="Layer 2"><g id="Layer_1-2" data-name="Layer 1"><rect class="cls-1" width="231" height="231" rx="115.5" ry="115.5"/><path class="cls-2" d="M74.66,58.12V50.76H98.24v9.71h-2Zm23.58,86.82v9.7H74.66v-7.35l21.56-2.35ZM88.09,99.3c0-16.12,0-32.41-.47-48.54h21.24c-.47,15.82-.47,32.1-.47,48.54v5.55c0,17.38,0,33.66.47,49.79H87.62c.47-15.81.47-32.1.47-48.54ZM139,50.76l9.24,8.35h-50V50.76h55.33l1.1,27.41h-11Zm-5.8,54.68H98.24V97.2h34.93Zm24.63,21.79-1.1,27.41H98.24v-8.29h53.1l-9.23,8.29,4.74-27.41ZM128.28,99.34l2.35-15.79h8.08v35.38h-8.08l-2.35-16.57Z"/></g></g></svg>